<?xml version="1.0" encoding="utf-8"?>
<!-- Generator: Adobe Illustrator 23.0.1, SVG Export Plug-In . SVG Version: 6.00 Build 0)  -->
<svg version="1.0" id="Слой_1" xmlns="http://www.w3.org/2000/svg" xmlns:xlink="http://www.w3.org/1999/xlink" x="0px" y="0px"
	 viewBox="0 0 1280 1024" style="enable-background:new 0 0 1280 1024;" xml:space="preserve">
<style type="text/css">
	.st0{fill:#0066ff;stroke:#0066ff;stroke-width:2;stroke-miterlimit:10;}
	.st1{fill:none;stroke:#FF0000;stroke-width:4;stroke-miterlimit:10;}
</style>
<path class="" d="M878,279l-540-97l-22,16l156,455h551l13-18L878,279z M493,631L344,198l525,95l148,338H493z"/>
<polygon points="391,232 406,219 472,232 498,251 514,298 503,310 436,303 409,284 "/>
<g>
	<polygon points="507.37912,250.57143 521.1134,238 581.54407,250.57143 605.35016,268.94507 620,314.3956 609.92822,326 
		548.58191,319.23077 523.86023,300.85715 	"/>
</g>
<g>
	<polygon points="611.37915,267.14285 624.01581,255 679.61725,267.14285 701.52087,284.89011 715,328.7912 705.73309,340 
		649.28918,333.46155 626.54315,315.71429 	"/>
</g>
<g>
	<polygon points="708,284 718.34149,274 768.2439,284.85715 787.90247,300.72528 800,340 795,350 741.02441,344.15384 724,328 	"/>
</g>
<polygon points="793,297 810,340 831,357 874,363 883,352 865,312 846,297 800,288 "/>
<g>
	<polygon points="424.92996,326.41925 439.42355,312.85696 505.87109,323.33191 532.57642,341.32709 550.3562,387.68311 
		539.82153,400.09366 472.60345,395.65247 444.89886,377.69537 	"/>
	<g>
		<polygon points="541.93237,340.54135 555.17749,327.45557 616.04346,337.71454 640.53247,355.16742 656.90411,400.02655 
			647.28192,412.00641 585.72217,407.58035 560.31818,390.16235 		"/>
	</g>
	<g>
		<polygon points="646.4884,353.13675 658.65308,340.52106 714.67694,350.53583 737.24109,367.4353 752.38373,410.79074 
			743.55078,422.3446 686.89868,417.96228 663.49274,401.09488 		"/>
	</g>
	<polygon points="743.68158,366.29889 753.6344,355.91199 803.91437,364.85919 824.16345,379.96652 837.74921,418.75159 
		833.13397,428.93491 778.97479,425.1503 761.34705,409.65707 	"/>
	<polygon points="829.11536,376.04965 847.74194,418.37045 869.37463,434.55768 912.57208,438.91434 921.1463,427.57932 
		901.63477,388.29443 882.07684,374.02954 835.76721,366.78937 	"/>
</g>
<polygon points="459,426 479,481 506,501 573,505 586,488 566,433 541,416 474,410 "/>
<polygon points="577,434 596,488 621,507 681,509 692,494 672,443 648,426 588,421 "/>
<polygon points="682,443 701,495 726,512 778,515 788,500 768,451 746,434 692,429 "/>
<polygon points="776,451 796,500 818,516 867,518 875,505 854,458 835,443 784,438 "/>
<polygon points="862,459 883,504 904,521 947,523 954,510 934,466 915,451 870,446 "/>
<polygon points="496,527 516,588 543,607 610,607 623,590 602,532 577,515 509,512 "/>
<polygon points="613,532 634,588 659,606 720,607 729,590 709,535 685,520 625,517 "/>
<polygon points="719,537 739,589 763,607 817,607 825,591 806,540 784,523 729,522 "/>
<polygon points="813,540 835,591 857,607 905,607 912,591 892,543 870,528 823,526 "/>
<polygon points="901,542 920,589 941,607 985,607 992,593 971,546 951,532 908,530 "/>
<path d="M749,653v104c0,0,127-2,156,30v19c-3,5-2.7356,5.68188-7,8c-10.17303,5.53003-23.71478,9.79041-43,13
	c-226.55347,37.70465-316-21-316-21v-17c0,0-4-27,153-32v28h10l1.7771-132"/>
<path class="st1" d="M911,134"/>
<path class="st1" d="M907,107"/>
<path class="st0" d="M911,134l-27-41l-20,44c0,0-17,3-32,12l-43-22l3,49c0,0-13,9-21,25l-49,3l16,23l38,8l6.09296-10.66266
	c3.92822-6.87436,8.53351-13.33899,13.74725-19.29755l4.20099-4.80118c5.95313-6.80353,12.66302-12.90564,19.99951-18.18794
	l3.7157-2.67531c6.80994-4.90312,14.11993-9.07126,21.80774-12.43469l3.09058-1.35211
	c11.49109-5.02734,23.70551-8.20407,36.18988-9.41223l0.88593-0.08574c7.49603-0.72542,15.04401-0.73672,22.54211-0.03378
	l7.16217,0.67146c9.01392,0.84505,17.90179,2.71727,26.49066,5.58022l1.69733,0.56578
	c8.22675,2.74225,16.12866,6.37662,23.56464,10.8382l3.8432,2.30591c6.63043,3.97826,12.85681,8.59406,18.59058,13.78178
	l1.83307,1.65851c7.00549,6.33829,13.23029,13.48923,18.54254,21.30141l1.7345,2.55066
	c4.83154,7.10522,8.87836,14.71344,12.06946,22.69122v0.00003c3.45422,8.6355,5.88281,17.64661,7.23608,26.84836l1.1709,7.96277
	c1.19165,8.10291,1.54248,16.30725,1.04712,24.4823l-0.0946,1.56094c-0.76855,12.68042-3.56506,25.15561-8.28308,36.95068
	l-2.07642,5.19101c-3.1911,7.97778-7.23792,15.586-12.06946,22.69122l-1.64551,2.41983
	c-5.37097,7.89847-11.6745,15.1207-18.77411,21.51038l-1.95862,1.76273c-4.89362,4.40424-10.14471,8.39429-15.6991,11.92889L959,410
	l8,20l42,21l-3-48c0,0,12-10,22-25l48-3l-28-40c0,0,5-15,7-34l40-26l-44-21c0,0-1-17-12-32l22-44l-48,4c0,0-13-15-26-21l-3-49
	l-39,28C945,140,911.21661,134.01083,911,134"/>
</svg>
