<?xml version="1.0"?>
<svg xmlns="http://www.w3.org/2000/svg" enable-background="new 0 0 100 100" height="512px" viewBox="0 0 100 100" width="512px" class=""><g><path d="m65.6649094 5h-43.966774c-4.3766308 0-7.9245396 3.5479746-7.9245396 7.9245396v74.1509247c.0000019 4.3766231 3.5479107 7.9245357 7.9245415 7.9245357h56.6037292c4.3766251 0 7.9245377-3.5479126 7.9245377-7.9245377v-61.5139713z" fill="#d5d6db" data-original="#D5D6DB" class=""/><path d="m65.6649094 17.6369514c0 4.376564 3.5479126 7.9245396 7.9245453 7.9245396h12.6369476l-20.5614929-20.561491z" fill="#e6e9ef" data-original="#E6E9EF" class=""/><g fill="#4d5c7d"><path d="m77.1836395 79.8340454-2.6755066-1.9693985v1.3343048h-46.7684059v-45.6735992h1.5433769l-1.9693985-2.6755696-1.9694576 2.6755696h1.3866615v46.6824188h.1848336.8239841 46.7684059v1.5956726z" data-original="#4D5C7D" class=""/><path d="m22.816357 36.05447h2.527891v.741308h-2.527891z" data-original="#4D5C7D" class=""/><path d="m22.816357 40.555271h2.527891v.741308h-2.527891z" data-original="#4D5C7D" class=""/><path d="m22.816357 45.056072h2.527891v.741308h-2.527891z" data-original="#4D5C7D" class=""/><path d="m22.816357 49.55687h2.527891v.741308h-2.527891z" data-original="#4D5C7D" class=""/><path d="m22.816357 54.057671h2.527891v.741308h-2.527891z" data-original="#4D5C7D" class=""/><path d="m22.816357 58.558472h2.527891v.741308h-2.527891z" data-original="#4D5C7D" class=""/><path d="m22.816357 63.059273h2.527891v.741308h-2.527891z" data-original="#4D5C7D" class=""/><path d="m22.816357 67.560074h2.527891v.741308h-2.527891z" data-original="#4D5C7D" class=""/><path d="m22.816357 72.060875h2.527891v.741308h-2.527891z" data-original="#4D5C7D" class=""/><path d="m22.816357 76.561668h2.527891v.741308h-2.527891z" data-original="#4D5C7D" class=""/><path d="m69.233238 82.343735h2.527891v.741308h-2.527891z" transform="matrix(0 1 -1 0 153.212 12.217)" data-original="#4D5C7D" class=""/><path d="m64.732437 82.343735h2.527891v.741308h-2.527891z" transform="matrix(0 1 -1 0 148.711 16.718)" data-original="#4D5C7D" class=""/><path d="m60.231636 82.343735h2.527891v.741308h-2.527891z" transform="matrix(0 1 -1 0 144.21 21.219)" data-original="#4D5C7D" class=""/><path d="m55.730835 82.343735h2.527891v.741308h-2.527891z" transform="matrix(0 1 -1 0 139.709 25.72)" data-original="#4D5C7D" class=""/><path d="m51.230038 82.343735h2.527891v.741308h-2.527891z" transform="matrix(0 1 -1 0 135.208 30.22)" data-original="#4D5C7D" class=""/><path d="m46.729237 82.343735h2.527891v.741308h-2.527891z" transform="matrix(0 1 -1 0 130.708 34.721)" data-original="#4D5C7D" class=""/><path d="m42.228436 82.343735h2.527891v.741308h-2.527891z" transform="matrix(0 1 -1 0 126.207 39.222)" data-original="#4D5C7D" class=""/><path d="m37.727634 82.343735h2.527891v.741308h-2.527891z" transform="matrix(0 1 -1 0 121.706 43.723)" data-original="#4D5C7D" class=""/><path d="m33.226837 82.343735h2.527891v.741308h-2.527891z" transform="matrix(0 1 -1 0 117.205 48.224)" data-original="#4D5C7D" class=""/><path d="m28.726036 82.343735h2.527891v.741308h-2.527891z" transform="matrix(0 1 -1 0 112.704 52.724)" data-original="#4D5C7D" class=""/></g><path d="m27.739727 79.1989517v-11.2682266l6.7582131-4.5008011 14.3658828-1.2416038 7.7531166-12.6314507 12.8826867-3.759491 3.9855728-5.2421074v38.6436806z" fill="#e56353" data-original="#E56353" class="active-path" style="fill:#0033CC" data-old_color="#e56353"/><path d="m27.739727 79.1989517v-7.6185226l6.7582131-3.0430222 14.3658828-.8394623 7.7531166-8.5402069 12.8826867-2.5418167 3.9855728-3.5442276v26.1272583z" fill="#fcd462" data-original="#FCD462" class="" style="fill:#00CC00" data-old_color="#fcd462"/></g> </svg>
